<svg xmlns="http://www.w3.org/2000/svg" viewBox="0 0 959.9 202.7"><path d="M183 54.2S174.6 2 232.2 5.3c-.3 0 7.5 53.7-49.2 48.9zM132.9.2s-6.3 39.9 37.5 37.2c0 0 5.7-40.8-37.5-37.2zm38.7 144V56H144l-62.4 87.9H39l33.9-33c14.4-13.8 22.8-27.6 22.8-46.5 0-25.5-18.3-43.5-47.7-43.5C18 20.9.9 39.8 0 68.6v.3h27.6v-2.1c0-12.6 7.5-21 20.7-21s20.4 8.4 20.4 18.9c0 8.4-4.5 17.4-13.5 25.8L0 143.9v24.9h144.3v33h27.6v-33h15.3v-24.3l-15.6-.3zm-27.3 0h-31.2l30.9-43.5v43.5h.3zM380.2 20h-32.7l-55.8 63.6V20h-24v149.1h24V99.2l54.6 69.9.3.3h33.9l-64.2-78.6L380.2 20zm39.6 44.1h-22.5v105h22.5v-105zm62.1-27.9h-22.5v27.9h-21.9v20.1h21.9v49.2c0 4.2.3 8.1.6 12.3.3 4.2 1.5 8.1 3.6 11.7 2.1 3.6 5.4 6.3 9.6 8.7 4.2 2.1 10.2 3.3 17.7 3.3 2.1 0 4.8-.3 8.7-.6 3.9-.6 6.9-1.5 9.3-2.7l.9-.6v-21.3l-2.7 1.5c-1.8.9-3.9 1.8-6 2.1-2.4.3-4.5.6-6.6.6-3.3 0-5.7-.6-7.2-1.8s-2.7-2.7-3.6-4.5c-.9-2.1-1.2-4.2-1.5-6.9 0-2.7-.3-5.4-.3-8.1V84.2h28.2V64.1h-28.2V36.2zm76.5 58.2c2.4-3 5.4-5.4 8.7-6.9 3.6-1.8 7.8-2.7 12.3-2.7 4.8 0 9 .9 12.6 2.7 3.6 1.8 6.9 4.2 10.2 7.8l1.2 1.2 16.5-15-1.2-1.2c-4.8-5.4-10.8-9.3-17.7-12-6.6-2.7-13.8-3.9-21-3.9-7.8 0-15 1.2-21.6 3.9-6.3 2.7-12 6.3-16.5 10.8-4.5 4.5-8.1 10.2-10.8 16.8-2.4 6.3-3.9 13.5-3.9 21.3s1.2 14.7 3.9 21.3c2.4 6.3 6.3 12 10.8 16.5 4.8 4.5 10.2 8.1 16.8 10.8 6.3 2.4 13.5 3.9 21.3 3.9 7.2 0 14.4-1.2 20.7-3.6 6.6-2.4 12.3-6.3 17.4-12l1.2-1.2-15.6-15.6-1.2 1.5c-3 3.3-6.3 6-9.6 7.5-3.3 1.8-7.5 2.7-12.6 2.7-4.5 0-8.7-.9-12.3-2.4s-6.6-3.9-9.3-6.6-4.5-6-6-9.9c-1.5-3.9-2.1-7.8-2.1-12s.6-8.4 1.8-12.3c1.8-4.8 3.6-8.4 6-11.4zm160.2-21.6c-3.6-3.3-7.5-5.7-12.3-7.2-4.5-1.5-9.6-2.4-14.4-2.4-8.1 0-15.3 1.8-21.3 5.1-4.2 2.4-7.5 5.1-10.2 8.7V20h-22.5v149.1h22.5V116c0-5.4.6-10.5 2.1-14.4 1.2-3.9 3.3-7.2 5.4-9.9 2.4-2.4 5.1-4.5 8.1-5.4 3.3-1.2 6.6-1.8 10.2-1.8 2.7 0 5.4.3 8.1 1.2 2.4.9 4.8 2.1 6.6 3.9s3.6 4.2 4.5 7.2c1.2 3 1.8 6.9 1.8 11.1v60.6h22.5v-66c0-6.9-.9-12.9-3-17.7-1.8-4.5-4.5-8.7-8.1-12zm120.3 7.8c-3.9-5.1-9-9.3-15.3-12.3s-13.8-4.8-22.8-4.8c-7.5 0-14.4 1.5-21 3.9-6.3 2.7-12 6.3-16.5 11.1s-8.4 10.5-10.8 16.8c-2.7 6.3-3.9 13.5-3.9 21s1.2 14.4 3.6 20.7c2.4 6.3 6 12 10.5 16.8 4.5 4.8 9.9 8.4 16.5 11.1 6.3 2.7 13.8 3.9 21.6 3.9 18.9 0 33.9-6.9 44.7-20.7l1.2-1.5-16.8-12.9-1.2 1.5c-3.3 4.2-7.2 7.5-11.4 10.2-3.9 2.4-8.7 3.6-14.1 3.6-3.9 0-8.1-.6-11.7-2.1-3.6-1.2-7.2-3-9.9-5.4-2.7-2.4-5.1-5.1-6.9-8.4-1.5-2.7-2.4-5.7-2.4-9h78v-8.4c0-6.3-.9-12.9-2.7-18.9-1.8-5.7-4.8-11.4-8.7-16.2zm-12.3 26.1H772c.3-2.4.9-4.8 1.8-7.5 1.2-3 3.3-6 5.7-8.7 2.4-2.4 5.4-4.8 9-6.3 3.6-1.5 7.5-2.4 11.7-2.4 4.5 0 8.4.6 11.4 2.1 3.3 1.2 6 3.3 8.1 5.4 2.1 2.4 3.9 5.1 4.8 8.4 1.5 2.7 2.1 5.7 2.1 9zm130.6-21.3c-2.1-5.1-4.8-9.3-8.4-12.6-3.6-3.3-7.5-5.7-12.3-7.2-4.5-1.5-9.6-2.4-14.4-2.4-8.1 0-15.3 1.8-21.3 5.1-4.2 2.4-7.5 5.1-10.2 8.7V64.1H868v105h22.5V116c0-5.4.6-10.5 2.1-14.4 1.2-3.9 3.3-7.2 5.4-9.9 2.4-2.4 5.1-4.5 8.1-5.4 3.3-1.2 6.6-1.8 10.2-1.8 2.7 0 5.4.3 8.1 1.2 2.4.9 4.8 2.1 6.6 3.9 1.8 1.8 3.6 4.2 4.5 7.2 1.2 3 1.8 6.9 1.8 11.1v60.6h22.5v-66c.4-6-.8-12-2.6-17.1zM411.4 45.2c6.9-1.5 11.1-8.7 9.6-15.6s-8.7-11.1-15.6-9.6-11.1 8.7-9.6 15.6c1.8 6.9 8.7 11.4 15.6 9.6z" fill="#83B73E"/></svg>
