<?xml version="1.0" encoding="UTF-8"?><svg xmlns="http://www.w3.org/2000/svg" xmlns:xlink="http://www.w3.org/1999/xlink" viewBox="0 0 444.03 187.36"><defs><mask id="uuid-b0a8d7e0-8f11-47a2-b992-909506c5d134" x="-494.66" y="-103.59" width="985.78" height="496.65" maskUnits="userSpaceOnUse"><g id="uuid-693db239-615d-4dfe-b6b8-b678c3e71bf7"><path d="M443.67,187.07H17.92c-9.86,0-17.85-7.99-17.85-17.85V-11.08C.07-20.94,8.06-28.93,17.92-28.93h425.75v216Z" fill="#fff"/></g></mask><linearGradient id="uuid-d7d1084b-9199-4207-8a72-718886d3c51c" x1="-12.35" y1="138.09" x2="26.23" y2="-106.94" gradientTransform="translate(0 163.07) scale(1 -1)" gradientUnits="userSpaceOnUse"><stop offset="0" stop-color="#72a037"/><stop offset="1" stop-color="#01838a"/></linearGradient><linearGradient id="uuid-8a827a2e-449b-4a6c-8592-cd37b437eec2" x1="-107.11" y1="-23.76" x2="199.58" y2="192.55" gradientTransform="translate(0 163.07) scale(1 -1)" gradientUnits="userSpaceOnUse"><stop offset=".11" stop-color="#abca49"/><stop offset=".33" stop-color="#77b860"/><stop offset=".63" stop-color="#37a37c"/><stop offset=".84" stop-color="#0f958e"/><stop offset=".95" stop-color="#009095"/></linearGradient></defs><g mask="url(#uuid-b0a8d7e0-8f11-47a2-b992-909506c5d134)"><g opacity=".1"><path d="M-79.08-21.54c-68.6-106.8-214.08-96.3-328.96-42.31l-86.61-10.05,168.85,193.69L459.58,393.06l22.68-141.98c46.44,17.84-110.13,41.91,0,0C423,68.95,227.3,169.32,16.72,75-33.71,52.41-54.42,16.87-79.08-21.54Z" fill="url(#uuid-d7d1084b-9199-4207-8a72-718886d3c51c)"/><path d="M-79.08-21.54c-68.6-106.8-214.08-96.3-328.96-42.31l-86.61-10.05,168.85,193.69L459.58,393.06l22.68-141.98c46.44,17.84-110.13,41.91,0,0C423,68.95,227.3,169.32,16.72,75-33.71,52.41-54.42,16.87-79.08-21.54Z" fill="#01838a"/></g><g opacity=".11"><path d="M205.45,73.49c42.34.41,86.21,3.11,123.78,22.63,36.34,18.88,64.38,50.56,78.7,88.93l24.65,66.06-102.37-35.24-45.24-12.65c-36.95-10.33-76.55-4.67-109.12,15.6-30.18,18.78-66.49,25.07-101.24,17.55l-147.57-31.94c-69.03-14.94-134.21-44.07-191.39-85.54l-43.46-31.52-96.12-136.13c32.06,11.56,67.03,12.22,99.5,1.87l57.86-18.44c42.85-14.16,98.71-5.69,130.93,4.65C4.05-22.25-19.6,27.66,89.88,56.13c13.47,3.5,62.97,16.85,115.57,17.36Z" fill="url(#uuid-8a827a2e-449b-4a6c-8592-cd37b437eec2)"/></g></g></svg>
